<svg width="201" height="200" viewBox="0 0 201 200" fill="none" xmlns="http://www.w3.org/2000/svg">
<g clip-path="url(#clip0_120_1128)">
<path d="M100.5 0C80.7218 0 61.3879 5.8649 44.9429 16.853C28.498 27.8412 15.6808 43.459 8.11202 61.7317C0.543252 80.0043 -1.43708 100.111 2.42144 119.509C6.27996 138.907 15.804 156.725 29.7893 170.711C43.7745 184.696 61.5928 194.22 80.9909 198.079C100.389 201.937 120.496 199.957 138.768 192.388C157.041 184.819 172.659 172.002 183.647 155.557C194.635 139.112 200.5 119.778 200.5 100C200.5 86.8678 197.913 73.8642 192.888 61.7317C187.862 49.5991 180.497 38.5752 171.211 29.2893C161.925 20.0035 150.901 12.6375 138.768 7.61205C126.636 2.58658 113.632 0 100.5 0ZM100.5 187.64C83.0952 187.64 66.0813 182.479 51.6098 172.809C37.1383 163.14 25.8591 149.396 19.1986 133.316C12.5381 117.236 10.7954 99.5424 14.1909 82.4721C17.5864 65.4017 25.9676 49.7216 38.2746 37.4146C50.5816 25.1076 66.2617 16.7264 83.332 13.3309C100.402 9.9354 118.096 11.6781 134.176 18.3386C150.256 24.9991 164 36.2783 173.669 50.7498C183.339 65.2213 188.5 82.2352 188.5 99.64C188.489 122.972 179.213 145.345 162.711 161.84C146.209 178.334 123.832 187.6 100.5 187.6V187.64Z" fill="#C99566"/>
<path d="M100.5 14.6001C83.6491 14.6001 67.1765 19.597 53.1654 28.9589C39.1543 38.3208 28.2341 51.6272 21.7855 67.1955C15.3369 82.7638 13.6496 99.8946 16.9371 116.422C20.2246 132.949 28.3391 148.13 40.2545 160.046C52.1699 171.961 67.3511 180.076 83.8783 183.363C100.406 186.651 117.536 184.963 133.105 178.515C148.673 172.066 161.979 161.146 171.341 147.135C180.703 133.124 185.7 116.651 185.7 99.8001C185.668 77.2134 176.682 55.5609 160.71 39.5897C144.739 23.6184 123.087 14.6318 100.5 14.6001Z" fill="#C99566"/>
<path d="M126.096 81.7524C125.87 81.3754 125.418 81.3 125.041 81.4508C123.457 82.3555 122.251 81.3754 120.14 79.566C118.632 78.2844 116.898 76.7766 114.712 76.3242C112.375 75.8719 110.339 76.9273 109.058 78.3598C108.681 78.2844 108.304 78.2844 107.927 78.2844C107.927 78.2844 107.927 78.2844 107.851 78.2844C106.947 78.2844 105.967 78.4352 105.062 78.7367C104.383 77.3797 103.403 76.0226 102.197 74.741C103.629 74.0625 104.61 72.5546 104.61 70.896C104.61 68.5589 102.725 66.5987 100.312 66.5987C98.2767 66.5987 96.5427 68.0312 96.1657 69.9159C95.4118 69.539 94.6579 69.2374 93.9794 69.0112C94.2809 68.5589 94.6579 68.0312 95.1102 67.5034C96.2411 66.2972 96.6181 64.8647 96.1657 63.5077C96.0903 63.2061 95.9395 62.9045 95.7134 62.603C96.4673 60.9444 96.3165 59.135 95.7888 57.8533C96.4673 56.9486 97.0704 55.8931 97.372 54.6115C97.4474 54.2345 97.2212 53.7822 96.8442 53.7068C96.4673 53.6314 96.0149 53.8576 95.9395 54.2345C95.7134 55.0638 95.4118 55.8178 94.9595 56.4209C94.4317 55.7424 93.6778 55.29 92.9993 55.2146C90.6621 54.9884 89.5313 55.9685 89.2297 57.024C88.9281 58.0041 89.3805 59.0596 90.2852 59.5873C91.1899 60.1151 92.3208 60.1151 93.4516 59.6627C93.8286 59.5119 94.2055 59.2858 94.5825 58.9842C94.7333 59.6627 94.8087 60.492 94.5825 61.3213C94.1301 61.0198 93.6024 60.7936 93.0747 60.6428C91.8684 60.4166 90.7375 60.7182 89.9836 61.6229C89.4559 62.226 89.3051 62.9799 89.5313 63.7338C89.8328 64.5632 90.5868 65.2417 91.4915 65.3925C92.17 65.5432 93.4516 65.4678 94.7333 64.0354C94.9595 64.8647 94.6579 65.694 93.9794 66.4479C93.3008 67.2018 92.7731 67.8804 92.3961 68.5589C91.793 68.4835 91.2653 68.4081 90.7375 68.4081C89.1543 68.4081 87.7973 68.9358 86.8172 69.8405C86.3648 70.2929 85.9879 70.896 85.7617 71.5745L75.1315 97.66C74.9053 98.1877 74.9807 98.7908 75.2823 99.3186C75.5839 99.8463 76.187 100.072 76.7147 100.072C76.9409 100.072 77.1671 99.9971 77.3933 99.9217L93.527 93.2873L103.403 89.2161C104.082 88.99 104.685 88.613 105.137 88.1606C106.947 86.3513 107.022 83.3356 105.665 80.0938C106.344 79.8676 107.097 79.7922 107.776 79.7922C107.851 79.7922 107.927 79.7922 108.002 79.7922C106.947 81.8278 107.173 84.0141 108.455 85.5219C109.208 86.3513 110.113 86.6528 110.942 86.6528C111.696 86.6528 112.45 86.3513 112.978 85.8989C114.184 84.8434 114.787 82.8079 113.129 80.6969C112.45 79.8676 111.621 79.1891 110.641 78.8121C111.621 77.9828 112.903 77.5305 114.335 77.832C116.144 78.209 117.652 79.4906 119.085 80.6969C121.12 82.4309 123.156 84.1649 125.719 82.7325C126.172 82.5817 126.322 82.1293 126.096 81.7524ZM92.9239 58.3057C92.4715 58.5318 91.793 58.6826 91.1145 58.3057C90.8129 58.1549 90.6621 57.7779 90.7375 57.4764C90.8883 57.0994 91.3407 56.7224 92.4715 56.7224C92.6223 56.7224 92.7731 56.7224 92.9239 56.7224C93.2255 56.7224 93.6778 57.024 94.0548 57.5518C93.6778 57.9287 93.3008 58.1549 92.9239 58.3057ZM93.8286 63.0553C93.2255 63.8092 92.5469 64.1862 91.9438 64.0354C91.5668 63.96 91.2653 63.7338 91.1145 63.3569C91.0391 63.1307 91.1145 62.9045 91.2653 62.7538C91.6422 62.3014 92.0946 62.226 92.4715 62.226C92.6223 62.226 92.7731 62.226 92.9239 62.3014C93.3008 62.3768 93.7532 62.603 94.0548 62.9045C93.904 62.9045 93.8286 62.9799 93.8286 63.0553ZM100.388 68.1065C101.895 68.1065 103.177 69.3128 103.177 70.896C103.177 72.2531 102.122 73.4593 100.765 73.6101C100.614 73.6101 100.538 73.6855 100.388 73.6855C100.237 73.6855 100.011 73.6855 99.8599 73.6101C99.7845 73.6101 99.7845 73.6101 99.7091 73.6101C99.5583 73.6101 99.4829 73.5347 99.3322 73.4593C99.2568 73.4593 99.2568 73.3839 99.1814 73.3839C99.106 73.3085 98.9552 73.3085 98.8798 73.2332C98.8044 73.1578 98.729 73.1578 98.729 73.0824C98.6536 73.007 98.5782 73.007 98.5029 72.9316C98.4275 72.8562 98.3521 72.7808 98.2767 72.7054C98.2767 72.63 98.2013 72.63 98.2013 72.5546C98.1259 72.4039 98.0505 72.3285 97.9751 72.1777C97.8243 71.8761 97.7489 71.5745 97.6735 71.1976C97.6735 71.1222 97.6735 71.0468 97.6735 70.9714C97.5982 69.3882 98.8798 68.1065 100.388 68.1065ZM91.7176 85.145C91.793 85.2204 91.8684 85.2958 91.9438 85.2958C92.2454 85.5219 92.5469 85.8235 92.8485 86.0497C92.9239 86.1251 92.9239 86.1251 92.9993 86.2005C93.3008 86.4266 93.527 86.5774 93.8286 86.8036C93.904 86.879 93.9794 86.879 93.9794 86.9544C94.2809 87.1806 94.5825 87.3313 94.8841 87.5575C94.9595 87.6329 95.0348 87.6329 95.1102 87.7083C95.4118 87.8591 95.7134 88.0853 96.0149 88.236H96.0903C96.3919 88.3868 96.6935 88.5376 97.0704 88.6884C97.0704 88.6884 97.1458 88.6884 97.1458 88.7638C90.5114 88.0099 85.3847 84.3911 83.8769 80.6215L84.6308 78.7367C85.6109 80.1692 87.0434 81.3 88.8527 82.2047C89.4559 82.9586 90.059 83.7126 90.8129 84.4665C91.1145 84.6173 91.4161 84.9188 91.7176 85.145ZM93.2255 91.8548C90.1344 91.4779 83.2738 90.1208 81.6906 85.7481L83.0476 82.3555C85.6109 86.8036 91.4914 89.5177 97.2966 90.1962L93.2255 91.8548ZM87.5711 94.192C84.7816 93.9658 81.3136 92.9103 80.1073 89.5931L80.9366 87.6329C82.8968 90.7993 87.0434 92.2318 90.5868 92.9857L87.5711 94.192ZM82.5199 96.2275C80.1827 96.2275 78.5241 95.2474 78.2226 94.192L79.3534 91.4779C80.4843 93.3627 82.3691 94.5689 84.9324 95.2474L82.5199 96.2275ZM86.8926 79.0383C86.214 78.4352 85.7617 77.7566 85.3094 76.9273L85.7617 75.8719C85.9879 76.9273 86.3648 77.9828 86.8926 79.0383ZM76.8655 98.5647C76.7147 98.64 76.6393 98.5647 76.5639 98.4893C76.4886 98.4139 76.5639 98.2631 76.5639 98.2631L77.544 95.926C78.1472 96.5291 78.9011 97.0568 79.8812 97.3584L76.8655 98.5647ZM104.157 87.1052C103.856 87.4067 103.403 87.7083 102.951 87.8591C102.499 88.0099 101.895 88.0853 101.292 88.0853C98.8044 88.0853 95.7134 86.6528 92.9993 84.3157C92.9239 84.2403 92.7731 84.1649 92.6977 84.0141C92.3961 83.7879 92.17 83.4864 91.8684 83.2602C91.6422 83.034 91.3407 82.7325 91.1145 82.5063C91.0391 82.4309 90.9637 82.2801 90.8883 82.2047C90.7375 82.0539 90.5868 81.9032 90.436 81.677C90.3606 81.5262 90.2852 81.4508 90.1344 81.3C89.9836 81.1493 89.9082 80.9985 89.7574 80.8477C89.6821 80.6969 89.6067 80.6215 89.5313 80.4707C89.4559 80.3199 89.3051 80.1692 89.2297 80.0184C89.1543 79.8676 89.0789 79.7922 89.0035 79.6414C88.8527 79.4906 88.7774 79.2645 88.702 79.1137C88.6266 79.0383 88.6266 78.9629 88.5512 78.8875C88.4004 78.5859 88.2496 78.3598 88.0988 78.0582C88.0988 77.9828 88.0234 77.9074 88.0234 77.9074C87.9481 77.6812 87.7973 77.4551 87.7219 77.2289C87.7219 77.1535 87.6465 77.0781 87.6465 77.0027C87.5711 76.7766 87.4957 76.6258 87.4203 76.3996C87.4203 76.3242 87.3449 76.2488 87.3449 76.1734C87.2695 75.9472 87.1941 75.7211 87.1941 75.5703C87.1941 75.4949 87.1941 75.4949 87.1187 75.4195C87.0434 75.1933 87.0434 74.9672 86.968 74.741V74.6656C86.8926 74.1379 86.8926 73.6855 86.968 73.2332C86.968 73.1578 86.968 73.1578 86.968 73.1578C86.968 73.007 87.0434 72.7808 87.0434 72.63C87.0434 72.5546 87.1187 72.4792 87.1187 72.4039C87.2695 71.8007 87.5711 71.3484 87.9481 70.9714C88.6266 70.2929 89.5313 69.9913 90.7375 69.9913C91.0391 69.9913 91.3407 69.9913 91.6422 70.0667C90.9637 71.5745 90.8883 72.63 90.8883 72.9316C90.8883 73.3839 91.1899 73.6855 91.6422 73.6855C92.0192 73.6855 92.3961 73.3839 92.3961 72.9316C92.3961 72.7808 92.4715 71.7253 93.1501 70.2929C94.1301 70.5945 95.1102 70.9714 96.0903 71.5745C96.2411 72.3285 96.5427 73.007 96.995 73.6101C96.995 73.6101 96.995 73.6101 97.0704 73.6855C97.2212 73.8363 97.2966 73.9871 97.4474 74.0625C97.5228 74.0625 97.5228 74.1379 97.5982 74.1379C97.7489 74.2886 97.8997 74.364 98.0505 74.4394C98.1259 74.4394 98.2013 74.5148 98.2013 74.5148C98.3521 74.5902 98.5029 74.6656 98.729 74.741C98.8044 74.741 98.8798 74.8164 98.8798 74.8164C99.106 74.8918 99.2568 74.9672 99.4829 74.9672C99.5583 74.9672 99.5583 74.9672 99.6337 74.9672C99.8599 74.9672 100.086 75.0425 100.312 75.0425C100.388 75.0425 100.463 75.0425 100.538 75.0425C101.82 76.3242 102.8 77.7566 103.554 79.1891C101.669 80.0184 99.9353 81.3754 98.5782 83.1848C98.3521 83.4864 98.3521 84.0141 98.729 84.2403C99.0306 84.4665 99.5583 84.4665 99.7845 84.0895C101.066 82.5063 102.574 81.3 104.233 80.5461C105.439 83.3356 105.514 85.8235 104.157 87.1052ZM112.073 81.677C113.204 83.1094 112.827 84.3157 112.149 84.8434C111.546 85.3712 110.49 85.5219 109.661 84.5419C108.53 83.2602 108.831 81.5262 109.51 80.3199C109.585 80.2446 109.585 80.1692 109.661 80.0938C110.641 80.3953 111.47 80.9231 112.073 81.677ZM119.16 64.4878C120.593 64.4878 121.799 63.2815 121.799 61.8491C121.799 60.4166 120.593 59.2104 119.16 59.2104C117.728 59.2104 116.521 60.4166 116.521 61.8491C116.521 63.2815 117.652 64.4878 119.16 64.4878ZM119.16 60.7182C119.763 60.7182 120.291 61.2459 120.291 61.8491C120.291 62.4522 119.763 62.9799 119.16 62.9799C118.557 62.9799 118.029 62.4522 118.029 61.8491C118.029 61.2459 118.482 60.7182 119.16 60.7182ZM100.614 77.9828C100.614 76.8519 99.7091 75.9472 98.5782 75.9472C97.4474 75.9472 96.5427 76.8519 96.5427 77.9828C96.5427 79.1137 97.4474 80.0184 98.5782 80.0184C99.7091 80.0184 100.614 79.0383 100.614 77.9828ZM98.0505 77.9828C98.0505 77.6812 98.2767 77.4551 98.5782 77.4551C98.8798 77.4551 99.106 77.6812 99.106 77.9828C99.106 78.2844 98.8798 78.5106 98.5782 78.5106C98.2767 78.5106 98.0505 78.209 98.0505 77.9828ZM102.725 58.9842L105.288 60.3412L105.59 63.2061C105.59 63.5077 105.816 63.7338 106.042 63.8092C106.117 63.8092 106.193 63.8846 106.268 63.8846C106.494 63.8846 106.645 63.8092 106.796 63.6585L108.907 61.6983L111.772 62.3014C112.073 62.3768 112.375 62.226 112.526 61.9998C112.676 61.7737 112.752 61.4721 112.601 61.2459L111.395 58.6072L112.827 56.1193C112.978 55.8931 112.978 55.5916 112.827 55.29C112.676 55.0638 112.375 54.9131 112.073 54.9884L109.208 55.4408L107.248 53.2544C107.022 53.0283 106.796 52.9529 106.494 53.0283C106.193 53.1037 106.042 53.3298 105.967 53.6314L105.439 56.4963L102.8 57.7025C102.574 57.8533 102.348 58.0795 102.348 58.3811C102.348 58.6826 102.499 58.8334 102.725 58.9842ZM106.419 57.7025C106.645 57.6271 106.796 57.401 106.871 57.1748L107.173 55.4408L108.379 56.7224C108.53 56.8732 108.756 57.024 109.058 56.9486L110.792 56.7224L109.887 58.2303C109.736 58.4565 109.736 58.6826 109.887 58.9088L110.641 60.492L108.907 60.1905C108.681 60.1151 108.379 60.1905 108.228 60.4166L106.947 61.6229L106.796 59.8889C106.796 59.6627 106.645 59.4365 106.419 59.2858L104.836 58.4564L106.419 57.7025ZM110.038 67.1265C109.736 67.0511 109.435 67.1265 109.284 67.2772C109.058 67.5034 108.982 67.805 109.133 68.0312L109.736 69.8405L108.605 71.3484C108.455 71.5745 108.379 71.8761 108.53 72.1777C108.681 72.4039 108.907 72.5546 109.208 72.63H111.093L112.149 74.2132C112.299 74.4394 112.526 74.5148 112.752 74.5148H112.827C113.129 74.4394 113.355 74.2886 113.43 73.9871L114.033 72.1777L115.843 71.6499C116.144 71.5745 116.295 71.3484 116.371 71.0468C116.446 70.7452 116.295 70.4437 116.069 70.2929L114.561 69.162L114.637 67.2772C114.637 66.9757 114.486 66.7495 114.26 66.5987C114.033 66.4479 113.732 66.5233 113.43 66.6741L111.923 67.805L110.038 67.1265ZM112.375 69.162L112.978 68.7097V69.4636C112.978 69.6898 113.053 69.9159 113.28 70.0667L113.883 70.5191L113.129 70.7452C112.903 70.8206 112.676 70.9714 112.601 71.273L112.375 72.0269L111.923 71.4238C111.772 71.1976 111.546 71.1222 111.319 71.1222H110.565L111.018 70.5191C111.169 70.2929 111.244 70.0667 111.169 69.8405L110.942 69.0866L111.696 69.3128C111.923 69.3882 112.224 69.3128 112.375 69.162Z" fill="white"/>
<path d="M47.485 125.22H39.2343V128.676H46.3835V131.268H39.2343V134.983H47.4634V137.661H36.34V122.542H47.485V125.22ZM60.9249 122.542H64.1863L58.225 137.661H54.9852L49.0239 122.542H52.2853L56.6051 133.903L60.9249 122.542ZM77.3022 125.22H69.0514V128.676H76.2006V131.268H69.0514V134.983H77.2806V137.661H66.1572V122.542H77.3022V125.22ZM90.1805 122.542H93.1395V137.661H90.6988L83.0961 127.834V137.661H80.137V122.542H82.5777L90.1805 132.348V122.542ZM108.437 122.542V125.22H103.361V137.661H100.402V125.22H95.3264V122.542H108.437ZM121.661 137.661L120.43 134.378H113.626L112.373 137.661H109.306L115.095 122.542H118.939L124.749 137.661H121.661ZM114.598 131.765H119.436L117.017 125.372L114.598 131.765ZM137.39 122.542V132.564C137.39 135.869 135.122 137.964 131.688 137.964C128.643 137.964 126.655 136.301 125.813 133.86L128.578 133.061C129.01 134.421 130.025 135.372 131.645 135.372C133.416 135.372 134.453 134.097 134.453 132.478V125.134H127.325V122.542H137.39ZM141.866 137.834C140.873 137.834 140.095 137.057 140.095 136.063C140.095 135.134 140.873 134.378 141.866 134.378C142.838 134.378 143.616 135.134 143.616 136.063C143.616 137.057 142.838 137.834 141.866 137.834ZM152.628 137.964C148.935 137.964 146.494 135.739 145.652 133.385L148.481 132.521C149.086 134.097 150.619 135.35 152.801 135.35C154.572 135.35 155.673 134.443 155.673 133.45C155.673 132.65 155.133 132.11 153.686 131.635L149.82 130.426C147.833 129.799 146.386 128.525 146.408 126.581C146.386 124.227 148.675 122.24 151.829 122.24C155.09 122.24 157.509 124.032 158.33 126.128L155.587 126.927C154.961 125.696 153.557 124.853 151.85 124.853C150.36 124.853 149.41 125.609 149.41 126.495C149.41 127.164 149.863 127.618 150.857 127.92L154.615 129.13C156.926 129.843 158.676 130.814 158.676 133.277C158.676 135.869 156.257 137.964 152.628 137.964ZM161.338 137.661V122.542H164.34V137.661H161.338Z" fill="white"/>
</g>
<defs>
<clipPath id="clip0_120_1128">
<rect width="200" height="200" fill="white" transform="translate(0.5)"/>
</clipPath>
</defs>
</svg>
